<svg width="1024" height="1024" viewBox="0 0 512 512" fill="none" xmlns="http://www.w3.org/2000/svg">
  <rect width="512" height="512" rx="96" fill="#4F46E5"/>
  <path d="M256 64C264.8 64 272 71.2 272 80V112.8C317.44 116.64 352 152.32 352 200C352 208.8 344.8 216 336 216S320 208.8 320 200C320 168.96 294.4 144 260 144H252C217.6 144 192 168.96 192 200S217.6 256 252 256H260C306.4 256 352 301.6 352 344C352 390.4 317.44 427.36 272 431.2V464C272 472.8 264.8 480 256 480S240 472.8 240 464V431.2C194.56 427.36 160 390.4 160 344C160 335.2 167.2 328 176 328S192 335.2 192 344C192 375.04 217.6 400 252 400H260C294.4 400 320 375.04 320 344C320 312.96 294.4 288 260 288H252C205.6 288 160 242.4 160 200C160 152.32 194.56 116.64 240 112.8V80C240 71.2 247.2 64 256 64Z" fill="white"/>
</svg>
