<svg width="800" height="200" viewBox="0 0 800 200" fill="none" xmlns="http://www.w3.org/2000/svg">
  <!-- Logo Icon -->
  <rect x="20" y="20" width="160" height="160" rx="24" fill="#4F46E5"/>
  <path d="M100 35C103.3 35 106 37.7 106 41V46.8C124.3 48.6 138 64.1 138 82.5C138 85.8 135.3 88.5 132 88.5C128.7 88.5 126 85.8 126 82.5C126 70.4 116.1 60.5 104 60.5H96C83.9 60.5 74 70.4 74 82.5C74 94.6 83.9 104.5 96 104.5H104C127.2 104.5 146 123.3 146 146.5C146 164.9 132.3 180.4 114 182.2V188C114 191.3 111.3 194 108 194C104.7 194 102 191.3 102 188V182.2C83.7 180.4 70 164.9 70 146.5C70 143.2 72.7 140.5 76 140.5C79.3 140.5 82 143.2 82 146.5C82 158.6 91.9 168.5 104 168.5H104C116.1 168.5 126 158.6 126 146.5C126 134.4 116.1 124.5 104 124.5H96C72.8 124.5 54 105.7 54 82.5C54 64.1 67.7 48.6 86 46.8V41C86 37.7 88.7 35 92 35H100Z" fill="white"/>
  
  <!-- Text -->
  <text x="220" y="130" font-family="Inter, -apple-system, BlinkMacSystemFont, 'Segoe UI', sans-serif" font-size="72" font-weight="700" fill="#111827">finarro</text>
</svg> 